<svg xmlns="http://www.w3.org/2000/svg" viewBox="0 0 500 240">
  <defs><linearGradient id="s" x1="0" y1="0" x2="1" y2="1"><stop stop-color="#f1dcac"/><stop offset="1" stop-color="#aa7b49"/></linearGradient></defs>
  <g fill="url(#s)" stroke="#805c38" stroke-width="3">
    <path d="M0 240V72h86v168Z"/><path d="M414 240V72h86v168Z"/>
    <path d="M7 76h72V42H62V20H47v22H30V20H15v22H7Z"/>
    <path d="M421 76h72V42h-15V20h-16v22h-17V20h-16v22h-8Z"/>
    <path d="M125 240V145h250v95Z"/>
    <path d="M118 150h264v-35h-28V96h-27v19h-42V96h-27v19h-42V96h-27v19h-42V96h-27v19h-2Z"/>
  </g>
  <path d="M211 240v-59c0-34 18-62 39-62s39 28 39 62v59Z" fill="#30465f"/>
  <g fill="#315e47"><path d="M83 240 120 137l37 103Z"/><path d="M343 240 381 136l38 104Z"/></g>
  <g fill="#f0c64a" stroke="#9e6b2c" stroke-width="2"><path d="M102 122 114 98l12 24-12 19Z"/><path d="M374 122 386 98l12 24-12 19Z"/></g>
</svg>